<svg version="1.1" id="Layer_1" xmlns="http://www.w3.org/2000/svg" xmlns:xlink="http://www.w3.org/1999/xlink" x="0px" y="0px"
	 width="100%" viewBox="0 0 1024 1024" enable-background="new 0 0 1024 1024" xml:space="preserve">
<path fill="#000000" opacity="1.000000" stroke="none" 
	d="
M779.000000,718.286011 
	C588.334229,718.278442 398.168427,718.273499 208.002625,718.264160 
	C205.170059,718.264038 202.315491,718.426025 199.508636,718.142090 
	C185.455124,716.720825 176.696136,706.903259 176.695908,692.688721 
	C176.693970,573.022339 176.696976,453.355988 176.702881,333.689636 
	C176.703629,318.439697 186.422302,308.705505 201.696625,308.705261 
	C408.696075,308.702026 615.695496,308.705536 822.694946,308.714966 
	C839.954224,308.715729 850.002869,318.140167 849.862427,335.505859 
	C849.611694,366.486938 850.094116,397.465881 849.566406,428.450714 
	C849.104309,455.589081 849.806396,482.746002 849.876648,509.894989 
	C849.958191,541.384033 849.908875,572.873352 849.921448,604.362549 
	C849.932129,631.172852 849.962524,657.983093 849.948547,684.793396 
	C849.946777,688.121277 849.910217,691.467651 849.574951,694.773560 
	C848.134644,708.973633 838.400696,718.018066 823.995178,718.219421 
	C809.166016,718.426758 794.331909,718.280090 779.000000,718.286011 
M229.307190,430.499969 
	C229.304123,500.494415 229.300766,570.488831 229.298691,640.483276 
	C229.298553,644.816223 229.207291,649.152283 229.337799,653.481445 
	C229.528717,659.815308 233.111588,663.722839 239.394135,664.496338 
	C241.369064,664.739441 243.388016,664.667664 245.386810,664.667908 
	C366.543732,664.682251 487.700684,664.691772 608.857605,664.695312 
	C666.852966,664.697021 724.848328,664.692932 782.843689,664.674072 
	C791.736511,664.671143 795.602112,660.776733 795.687561,651.886047 
	C795.692322,651.386108 795.691528,650.886108 795.691528,650.386169 
	C795.691711,559.060120 795.691956,467.734131 795.689392,376.408112 
	C795.689331,375.075165 795.752747,373.732117 795.617859,372.411011 
	C795.075134,367.094116 791.484375,363.597870 786.147156,363.243469 
	C783.822388,363.089081 781.483215,363.120575 779.150574,363.120483 
	C689.825623,363.117462 600.500671,363.122284 511.175690,363.122467 
	C421.683594,363.122650 332.191498,363.116943 242.699402,363.119843 
	C232.378967,363.120178 229.292511,366.213440 229.292770,376.504181 
	C229.293198,394.169434 229.302399,411.834686 229.307190,430.499969 
z"/>
<path fill="#000000" opacity="1.000000" stroke="none" 
	d="
M607.999817,499.682373 
	C613.497009,499.682343 618.494507,499.655182 623.491516,499.690125 
	C632.071045,499.750092 637.254700,504.800110 637.307007,513.239624 
	C637.362793,522.234375 637.356445,531.229980 637.299927,540.224792 
	C637.243469,549.210571 632.386230,554.187866 623.414856,554.262390 
	C610.589355,554.368896 597.762390,554.313049 584.936096,554.312866 
	C524.635681,554.311951 464.335236,554.314148 404.034821,554.295349 
	C393.154724,554.291931 388.693634,549.724854 388.696625,538.748962 
	C388.698792,530.753296 388.692871,522.757690 388.702789,514.762024 
	C388.715424,504.598999 393.486938,499.707642 403.610657,499.697937 
	C438.758148,499.664276 473.905731,499.684845 509.053253,499.684509 
	C541.868774,499.684235 574.684326,499.683655 607.999817,499.682373 
z"/>
</svg>